<?xml version="1.0" standalone="no"?>
<!DOCTYPE svg PUBLIC "-//W3C//DTD SVG 20010904//EN"
 "http://www.w3.org/TR/2001/REC-SVG-20010904/DTD/svg10.dtd">
<svg version="1.0" xmlns="http://www.w3.org/2000/svg"
 width="471.000000pt" height="561.000000pt" viewBox="0 0 471.000000 561.000000"
 preserveAspectRatio="xMidYMid meet">
<metadata>
Created by potrace 1.16, written by Peter Selinger 2001-2019
</metadata>
<g transform="translate(0.000000,561.000000) scale(0.100000,-0.100000)"
fill="#000000" stroke="none">
<path d="M2000 5395 c10 -12 10 -15 -1 -17 -8 0 -18 -2 -24 -2 -20 -3 -35 -18
-35 -36 0 -19 -32 -36 -50 -25 -17 10 -11 25 9 25 30 0 35 19 9 29 -17 7 -28
5 -43 -10 -19 -19 -19 -19 0 -33 19 -14 19 -15 3 -21 -29 -11 -21 -25 10 -19
20 4 34 0 45 -11 13 -12 26 -15 48 -10 22 5 29 4 25 -4 -4 -6 -13 -11 -20 -11
-8 0 -19 -6 -26 -14 -7 -9 -26 -14 -50 -13 -21 2 -38 0 -37 -3 1 -4 -19 -28
-45 -54 -51 -51 -81 -55 -91 -14 l-6 20 -27 -21 c-34 -26 -41 -26 -40 0 1 12
-5 24 -13 27 -9 3 -11 -1 -7 -16 4 -11 2 -23 -4 -27 -6 -3 -8 -10 -5 -15 3 -4
-5 -10 -17 -13 -12 -4 -25 -1 -29 5 -8 13 -39 -13 -39 -33 0 -8 -4 -8 -16 2
-14 12 -14 14 0 25 9 6 16 18 16 27 0 9 5 19 10 22 6 3 10 10 10 16 0 5 -8 1
-18 -8 -10 -10 -18 -22 -18 -28 1 -11 3 -11 -64 -35 -45 -16 -51 -17 -59 -3
-11 20 -32 8 -24 -14 5 -14 1 -15 -30 -10 -20 3 -39 1 -42 -4 -4 -5 -11 -9
-16 -9 -6 0 -3 7 6 16 9 10 26 14 41 11 16 -3 23 0 21 7 -2 6 -17 9 -33 7 -16
-2 -48 -4 -71 -5 -24 0 -43 -4 -43 -8 0 -4 7 -8 16 -8 8 0 13 -4 9 -9 -3 -5 3
-12 12 -14 10 -3 0 -4 -21 -3 -22 2 -54 0 -72 -4 -19 -4 -37 -3 -42 2 -6 6
-15 7 -21 4 -15 -9 -14 -36 1 -36 6 0 8 -3 5 -7 -4 -4 -21 4 -38 16 -33 24
-66 23 -93 -4 -8 -8 -17 -15 -20 -15 -12 0 -76 -45 -76 -53 0 -5 10 -5 23 -2
20 6 20 5 -5 -19 -16 -15 -28 -30 -28 -35 0 -4 -10 -18 -22 -31 l-21 -23 -9
24 -9 24 -23 -29 c-23 -28 -46 -88 -46 -119 0 -9 -14 -37 -32 -63 -28 -41 -33
-45 -40 -28 -5 13 -6 10 -3 -11 4 -19 0 -38 -9 -50 -9 -11 -16 -29 -16 -40 0
-12 -4 -25 -9 -30 -14 -16 -21 -96 -8 -88 15 9 47 12 47 4 0 -12 -15 -26 -27
-26 -7 0 -13 -4 -12 -9 0 -5 -3 -12 -8 -15 -11 -9 -49 -76 -79 -141 -14 -30
-29 -63 -35 -73 -19 -34 -1 -30 22 4 11 19 18 25 14 14 -7 -21 -13 -44 -14
-59 -1 -4 -8 -6 -16 -2 -10 3 -15 -1 -16 -12 -1 -22 -5 -42 -15 -67 -7 -19 -6
-19 12 1 10 11 25 19 32 17 6 -3 12 3 12 12 0 9 5 13 11 10 7 -5 4 -15 -8 -29
-21 -23 -53 -72 -53 -81 0 -3 7 -5 15 -5 8 0 22 14 31 31 11 23 21 30 35 26
21 -6 24 5 8 34 -7 14 -7 24 0 33 6 6 8 21 5 33 -3 11 -1 24 5 27 7 5 8 1 4
-10 -5 -13 -3 -15 7 -9 10 6 12 2 7 -16 -11 -47 -14 -64 -10 -51 3 6 9 12 14
12 6 0 7 5 3 12 -4 7 -3 8 5 4 6 -4 10 -10 8 -14 -2 -4 -8 -18 -15 -32 -6 -14
-16 -36 -22 -50 -21 -50 -46 -82 -84 -108 -22 -15 -38 -29 -36 -32 2 -3 -2
-16 -9 -29 l-13 -24 31 23 c18 12 35 19 38 16 8 -8 -27 -46 -42 -46 -15 0 -46
-35 -73 -83 -27 -47 -27 -45 3 -39 14 2 25 8 25 13 0 5 5 9 10 9 6 0 10 -6 10
-14 0 -14 -54 -40 -77 -37 -6 1 -17 -14 -24 -34 -7 -19 -16 -35 -19 -35 -4 0
-6 -21 -4 -47 1 -29 -3 -57 -12 -70 -8 -13 -12 -23 -8 -23 4 0 2 -6 -4 -12
-12 -16 -27 -86 -16 -75 5 5 14 22 20 40 15 43 31 45 26 2 -2 -19 -1 -43 4
-52 6 -14 9 -11 14 17 6 26 8 13 9 -50 2 -87 19 -90 20 -4 1 40 25 114 37 114
3 0 5 -12 4 -27 -3 -41 11 -78 21 -61 6 9 9 6 10 -12 1 -25 1 -24 14 5 13 27
14 28 15 7 0 -31 19 -64 31 -57 5 4 12 -1 15 -9 12 -31 19 -15 19 38 0 49 2
53 16 40 9 -8 18 -11 21 -8 4 3 9 -8 13 -25 4 -17 13 -31 20 -31 8 0 19 -8 24
-17 6 -10 11 -12 11 -5 0 22 29 13 51 -17 12 -16 21 -32 20 -36 -3 -8 39 -45
50 -45 4 0 10 -8 13 -18 4 -10 12 -19 20 -19 11 0 10 10 -6 46 -23 54 -45 81
-67 82 -12 0 -12 2 3 8 17 7 17 8 2 23 -9 9 -16 27 -16 40 0 16 3 19 8 10 5
-7 16 -10 25 -6 12 4 17 1 17 -10 0 -9 5 -16 10 -16 7 0 6 8 -2 23 -6 12 -13
27 -14 32 -1 6 -5 19 -9 30 -4 11 6 0 21 -25 42 -64 87 -261 68 -292 -19 -30
-11 -138 10 -138 6 0 29 -23 50 -51 28 -36 41 -47 47 -37 6 9 9 7 9 -8 0 -12
11 -30 25 -40 14 -10 25 -24 25 -30 0 -6 7 -17 15 -24 9 -7 13 -20 10 -28 -3
-8 6 -29 20 -48 14 -18 25 -42 25 -53 0 -19 -6 -21 -76 -21 -41 0 -73 -4 -70
-9 3 -5 -18 -11 -47 -15 -139 -17 -206 -30 -201 -38 7 -11 74 -8 91 5 7 5 22
7 35 6 13 -1 41 1 63 5 84 15 266 -35 311 -85 16 -18 16 -19 -1 -19 -17 0 -16
-3 5 -25 16 -17 19 -25 9 -25 -11 0 -12 -2 -1 -9 8 -5 15 -20 15 -35 1 -14 5
-26 10 -26 4 0 7 -9 7 -21 0 -26 37 -79 55 -79 8 0 19 -9 25 -21 22 -40 20 -5
-4 81 -6 22 -6 23 5 6 16 -27 39 -115 39 -154 0 -55 17 -27 31 51 6 39 16 79
20 87 13 26 22 -36 10 -71 -6 -18 -11 -47 -11 -65 0 -19 -5 -54 -12 -79 -12
-44 -11 -46 19 -77 17 -18 32 -39 35 -47 5 -17 72 -41 116 -41 19 0 40 -8 53
-21 22 -22 22 -36 6 -140 -3 -17 5 -40 23 -65 21 -31 32 -38 53 -36 18 2 29
-3 32 -13 3 -8 8 -23 11 -32 4 -10 8 -26 9 -36 3 -26 26 -46 71 -62 32 -10 44
-23 67 -66 15 -30 34 -59 42 -65 8 -6 18 -26 21 -43 4 -18 12 -30 18 -28 12 5
38 -18 30 -26 -15 -14 80 -29 177 -28 127 2 208 23 286 76 29 19 57 35 63 35
5 0 10 3 10 8 0 8 62 52 73 52 4 0 7 -7 7 -15 0 -9 9 -25 19 -36 22 -24 33
-67 18 -76 -6 -3 -7 -1 -3 5 5 8 0 12 -13 12 -12 0 -21 5 -21 11 0 5 -4 7 -10
4 -5 -3 -10 -20 -10 -37 0 -22 4 -29 15 -25 21 8 28 -9 14 -34 -6 -12 -7 -19
-1 -15 6 3 15 -8 21 -26 14 -40 14 -81 0 -73 -6 4 -8 9 -6 12 3 2 -6 15 -20
29 -13 13 -38 53 -54 87 l-30 62 5 -57 c6 -79 54 -174 124 -247 51 -53 65 -62
142 -86 101 -32 122 -30 294 21 241 71 521 252 739 478 120 124 246 299 204
283 -10 -4 -17 -2 -17 3 0 6 -6 9 -12 7 -7 -1 -14 9 -16 22 -2 13 -17 36 -34
50 -40 34 -126 81 -149 81 -11 0 -19 7 -19 15 0 12 -9 15 -39 11 -35 -4 -44 0
-78 32 -41 41 -113 124 -127 149 -7 13 -10 13 -17 2 -6 -10 -11 -7 -19 11 -6
14 -24 48 -40 75 -16 28 -34 60 -39 72 -5 11 -15 24 -21 28 -5 3 -8 10 -5 15
3 5 1 11 -5 15 -5 3 -10 26 -10 51 0 24 -3 44 -7 44 -10 0 -9 82 0 97 4 6 2
13 -5 15 -7 3 -9 11 -4 24 8 19 8 19 16 -1 7 -15 8 -11 5 15 -2 19 -4 39 -4
43 -1 5 -7 5 -13 1 -8 -4 -10 -3 -5 2 5 5 13 10 18 10 5 1 13 2 19 3 5 0 8 15
6 31 -2 17 -1 30 1 30 2 0 19 -11 37 -25 41 -31 44 -31 38 3 -5 24 -4 26 11
13 17 -14 21 -6 20 36 -1 7 4 10 10 6 6 -4 8 2 5 15 -4 12 -3 22 1 22 4 0 6
14 5 30 -2 27 0 29 14 18 13 -11 15 -10 10 4 -4 9 0 24 7 35 9 11 12 30 9 50
-5 28 -3 33 19 38 19 5 27 15 32 42 3 20 10 43 15 52 4 9 20 57 35 106 27 89
32 123 35 263 1 39 6 72 11 72 5 0 6 18 3 41 -4 25 -3 44 4 48 7 4 7 22 1 55
-6 32 -5 53 1 61 6 7 12 66 14 131 3 80 9 131 20 157 22 50 22 176 1 261 -9
37 -14 78 -11 91 3 13 2 26 -3 29 -4 3 -11 32 -15 63 -8 74 -31 149 -51 169
-8 9 -15 20 -15 27 0 6 7 2 16 -9 14 -17 15 -17 10 -1 -3 10 -16 61 -28 114
-23 95 -23 96 -92 164 -72 72 -103 87 -91 47 4 -13 9 -31 11 -41 3 -9 14 -22
25 -28 11 -5 17 -15 13 -20 -10 -18 -71 60 -61 79 4 7 -28 42 -38 42 -14 -2
-65 36 -65 47 0 7 -7 13 -16 13 -9 0 -27 9 -41 20 -14 11 -32 20 -40 20 -9 0
-24 11 -35 25 -23 30 -38 32 -31 5 6 -22 -12 -28 -21 -7 -3 6 -3 2 0 -10 4
-17 1 -22 -15 -20 -11 0 -18 4 -16 8 3 3 -2 15 -10 25 -13 17 -14 15 -9 -21 4
-27 3 -36 -4 -26 -8 11 -10 11 -15 0 -3 -9 -6 -5 -7 9 -2 12 -4 25 -5 30 -2 4
-6 17 -10 30 -12 35 -24 25 -15 -13 4 -20 4 -35 -1 -35 -5 0 -9 11 -9 25 0 14
-4 25 -9 25 -5 0 -12 10 -15 23 -6 19 -9 15 -20 -26 -17 -61 -29 -73 -20 -20
4 25 2 43 -5 47 -6 4 -11 1 -11 -6 -1 -7 -7 1 -15 17 l-13 30 -3 -30 c-2 -27
-2 -28 -6 -5 -3 13 -14 36 -26 50 -11 14 -17 17 -14 8 3 -9 -1 -22 -10 -29
-13 -11 -15 -10 -13 11 4 46 1 57 -11 37 -10 -17 -12 -16 -39 3 -21 15 -29 17
-33 8 -3 -9 -10 -8 -26 6 -13 12 -19 26 -16 35 3 8 3 12 -1 8 -4 -4 -15 0 -25
9 -17 15 -19 15 -36 -2 -10 -9 -22 -27 -28 -38 -7 -15 -22 -22 -50 -24 -45 -3
-41 7 7 17 38 8 49 36 18 44 -12 3 -20 0 -20 -8 0 -7 -7 -15 -15 -19 -8 -3
-15 -1 -15 4 0 6 5 10 10 10 6 0 10 5 10 10 0 6 -9 10 -19 10 -14 0 -19 -6
-16 -20 2 -11 0 -20 -6 -20 -5 0 -9 9 -9 20 0 16 -7 20 -34 20 -39 0 -49 -16
-31 -49 l12 -23 7 23 c4 14 10 19 12 12 3 -7 -1 -22 -9 -33 -13 -19 -14 -19
-28 8 -8 15 -16 29 -19 32 -6 6 -26 49 -34 74 -6 19 -7 19 -20 0 -11 -14 -11
-21 -3 -26 11 -7 2 -12 -16 -9 -4 1 -10 -6 -13 -14 -5 -12 -10 -10 -25 9 -10
13 -19 29 -19 36 0 6 -5 8 -11 5 -6 -4 -22 4 -37 16 -14 13 -21 17 -14 8 6 -9
9 -18 7 -21 -3 -3 -1 -17 4 -31 7 -18 7 -28 0 -33 -6 -4 -2 -14 11 -26 12 -11
19 -23 16 -26 -12 -11 -54 39 -49 59 3 11 0 19 -6 19 -7 0 -10 4 -7 9 3 4 -1
17 -9 27 -13 16 -16 17 -25 4 -8 -13 -10 -13 -10 3 0 9 4 17 10 17 14 0 1 62
-17 80 -13 13 -14 13 -13 0 4 -26 0 -38 -16 -54 -17 -17 -49 -22 -39 -6 3 6 1
10 -4 10 -6 0 -11 7 -11 15 0 8 6 13 13 11 6 -1 9 -1 5 1 -5 3 -8 16 -8 29 0
32 -18 31 -26 -1 -6 -24 -44 -37 -44 -15 0 6 -8 10 -19 10 -10 0 -24 7 -31 15
-7 8 -17 15 -22 15 -6 0 -5 -7 2 -15z"/>
<path d="M880 2737 c-114 -79 -180 -128 -180 -133 0 -2 29 -4 63 -4 61 0 68 3
150 58 48 31 87 62 87 69 0 7 -10 23 -22 37 l-23 26 -75 -53z"/>
<path d="M753 2527 c-56 -28 -36 -132 46 -244 146 -199 263 -274 421 -272 82
1 124 19 128 55 3 29 3 29 -12 7 -34 -47 -150 -55 -257 -18 -125 43 -329 285
-329 391 0 35 5 47 31 68 23 20 26 26 12 25 -10 -1 -28 -6 -40 -12z"/>
<path d="M288 1455 c4 -50 2 -56 -20 -64 -12 -4 -29 -6 -37 -3 -9 4 -12 1 -7
-7 17 -27 -15 -39 -119 -46 -94 -7 -105 -9 -105 -26 0 -11 5 -19 10 -19 14 0
12 -78 -2 -82 -15 -5 -3 -37 17 -44 28 -11 45 15 45 71 0 35 5 57 15 65 8 7
15 9 16 4 2 -21 -3 -91 -8 -108 -3 -13 -1 -17 8 -14 8 3 13 12 11 21 -2 14 3
16 30 11 30 -5 31 -4 15 9 -9 8 -17 19 -17 26 0 6 -4 11 -8 11 -5 0 -9 13 -9
28 0 25 3 28 29 24 27 -4 28 -6 29 -71 0 -50 3 -60 9 -43 13 31 44 30 38 -3
-3 -13 -1 -22 3 -19 5 3 9 -2 9 -10 0 -9 -10 -18 -22 -20 -23 -5 -153 -15
-195 -16 -20 0 -23 -5 -23 -42 0 -38 1 -40 18 -27 30 26 70 42 86 36 24 -10
19 -24 -11 -34 l-28 -10 30 -7 c24 -6 32 -4 44 13 10 16 24 21 59 21 36 0 43
-3 34 -12 -7 -7 -12 -20 -12 -30 0 -16 -11 -18 -110 -18 -61 0 -110 -4 -110
-9 0 -4 57 -11 128 -15 70 -4 138 -10 152 -14 25 -6 25 -6 -5 -13 -21 -5 -10
-7 35 -7 36 0 57 2 48 5 -14 4 -15 7 -5 16 39 38 73 57 103 57 18 0 36 5 39
10 8 13 35 13 35 0 0 -6 -19 -28 -42 -50 -37 -34 -40 -39 -18 -33 14 3 33 13
43 21 16 14 17 12 17 -21 l0 -37 -53 0 -54 0 -10 -55 c-5 -30 -6 -55 -1 -55 4
0 8 9 8 19 0 11 5 23 10 26 15 9 25 -24 11 -38 -6 -6 -11 -18 -11 -26 1 -11 5
-9 13 7 10 18 15 20 25 10 10 -10 15 -10 22 2 5 8 10 23 10 33 0 9 4 17 9 17
13 0 18 -22 26 -107 5 -54 11 -73 21 -73 8 0 17 8 20 18 3 9 10 26 16 37 8 14
8 20 -1 23 -16 5 6 32 26 32 9 0 13 6 10 15 -4 8 -2 17 4 21 6 3 13 -3 16 -15
7 -29 46 -30 49 -1 1 8 5 24 9 34 8 18 4 19 -58 14 -53 -5 -67 -3 -67 8 0 9
11 14 31 14 44 0 36 34 -9 38 -29 3 -33 6 -30 30 2 16 12 31 24 36 11 5 25 23
30 40 9 30 10 31 62 28 52 -4 52 -4 52 26 0 25 -5 31 -32 37 -18 4 -53 6 -77
5 -53 -2 -61 8 -61 76 0 47 2 53 29 64 16 6 54 11 85 11 61 0 63 3 50 69 l-7
32 -76 -4 -76 -3 -1 26 c-2 54 -18 65 -66 44 -22 -9 -24 -30 -3 -22 22 9 30
-14 10 -30 -17 -12 -17 -13 -2 -13 9 0 17 -7 17 -16 0 -13 -7 -15 -29 -11 -15
3 -38 3 -50 0 -24 -6 -29 -33 -6 -33 8 0 15 4 15 8 0 13 69 9 74 -5 6 -14 -23
-33 -49 -33 -13 0 -16 -10 -14 -57 1 -32 -2 -75 -6 -96 -6 -29 -4 -37 6 -35 8
2 17 7 21 13 5 6 12 5 19 -2 19 -19 3 -21 -206 -36 l-30 -2 0 90 c0 80 -2 90
-18 87 -9 -2 -17 2 -17 7 0 14 34 31 63 31 20 0 24 5 25 31 0 18 4 49 7 70 4
26 3 39 -4 39 -17 0 -13 27 4 34 8 3 15 15 15 26 0 16 -7 20 -32 20 l-33 0 3
-55z"/>
<path d="M779 1026 c-2 -2 -1 -67 2 -143 4 -76 8 -199 9 -273 1 -74 6 -153 10
-175 7 -34 8 -30 6 29 l-2 69 116 -6 c63 -4 162 -9 220 -12 l105 -6 49 66 c66
89 105 155 145 247 18 43 49 101 67 130 19 29 34 55 34 59 0 14 -747 29 -761
15z"/>
<path d="M87 643 c-15 -24 14 -37 95 -40 45 -2 111 -6 146 -9 61 -5 62 -6 62
-35 0 -16 -5 -29 -11 -29 -8 0 -8 -4 -1 -12 6 -7 12 -33 13 -58 l3 -45 -122 3
-122 3 -12 -27 c-11 -24 -16 -26 -56 -20 -25 3 -51 6 -58 6 -8 0 -14 5 -14 11
0 6 20 9 51 8 42 -2 53 1 62 17 6 10 19 25 29 32 12 9 18 23 16 40 -3 30 -27
39 -115 41 l-53 1 0 -36 c0 -22 4 -33 10 -29 14 9 40 -13 40 -34 0 -22 -38
-25 -43 -3 -3 9 -5 -8 -5 -38 0 -30 2 -49 5 -42 2 6 13 12 24 12 15 0 19 -7
19 -32 0 -23 -3 -29 -9 -19 -10 15 -41 8 -41 -9 0 -6 30 -10 75 -10 l75 0 0
50 0 50 44 0 c59 0 76 -8 76 -35 0 -13 7 -30 15 -39 8 -8 15 -23 15 -34 0 -26
6 -30 35 -24 14 2 25 12 26 21 0 13 2 14 6 1 3 -8 12 -19 19 -23 53 -31 -43
-58 -194 -55 -85 3 -102 6 -100 18 2 10 24 18 71 24 37 5 67 12 67 16 0 4 -37
1 -82 -6 -46 -8 -98 -14 -115 -14 l-33 0 0 -58 0 -58 42 -10 c39 -8 43 -12 46
-42 3 -31 6 -33 35 -30 27 2 33 8 35 31 4 30 22 27 22 -4 0 -27 36 -25 43 2 5
20 10 21 64 15 101 -12 123 -18 123 -32 0 -10 13 -14 40 -14 22 0 40 5 40 10
0 24 31 7 37 -20 4 -20 11 -30 24 -30 11 0 16 5 13 14 -3 7 2 16 11 20 12 4
19 0 22 -14 6 -22 29 -27 35 -8 5 14 76 12 94 -3 6 -5 27 -8 47 -7 36 1 37 2
35 37 l-1 36 -4 -33 c-5 -42 -23 -32 -23 14 0 20 -8 42 -19 53 -10 10 -20 24
-22 30 -3 8 -51 12 -147 15 -134 2 -164 7 -149 22 9 10 98 9 124 0 19 -7 25
-4 32 15 5 13 10 18 10 10 1 -8 4 -11 7 -8 4 4 1 14 -6 22 -22 26 3 42 42 27
41 -15 45 -9 25 33 -20 41 -20 45 -8 45 5 0 13 -9 16 -20 3 -11 13 -20 21 -20
18 0 35 -16 52 -50 12 -24 12 -24 7 9 -3 18 -5 51 -5 72 0 32 -3 39 -20 39
-11 0 -20 5 -20 10 0 6 9 10 20 10 11 0 20 4 20 9 0 20 -42 81 -52 75 -6 -4
-5 -10 3 -15 15 -9 14 -11 -23 -27 -20 -8 -42 -9 -80 -2 -41 8 -55 7 -67 -4
-10 -9 -27 -12 -43 -9 -27 5 -28 7 -30 79 -1 41 -2 81 -2 89 -1 8 4 14 9 13 6
-2 10 -34 10 -71 0 -55 3 -70 18 -78 14 -8 22 -5 37 13 10 13 17 30 14 40 -3
9 4 22 17 31 11 9 18 20 14 26 -3 6 1 11 9 11 9 0 16 -6 16 -14 0 -16 18 -23
62 -25 25 -1 27 1 18 25 -14 37 -14 37 31 30 38 -6 40 -5 37 16 -3 22 -9 23
-98 30 -52 3 -111 9 -130 11 -19 3 -114 8 -210 12 -96 3 -187 8 -202 11 -14 3
-28 1 -31 -3z"/>
<path d="M2880 105 c0 -11 -11 -15 -40 -15 -33 0 -40 -3 -40 -19 0 -16 8 -21
43 -24 l42 -4 -42 -1 c-24 -1 -43 -7 -43 -13 0 -5 -5 -7 -10 -4 -6 4 -8 15 -5
25 7 23 -19 34 -35 14 -17 -19 -40 -18 -41 4 -1 9 -6 2 -12 -16 -5 -18 -7 -36
-3 -40 4 -4 65 -8 134 -8 70 -1 113 0 95 3 -23 3 -30 8 -26 19 3 9 13 12 24 9
15 -5 19 -1 19 15 0 16 -4 20 -19 15 -11 -3 -21 0 -24 9 -4 9 1 16 11 18 14 3
13 6 -5 16 -19 11 -23 10 -23 -3z"/>
</g>
</svg>
